/vscmnt/brussel_pixiu_data/_data_brussel/112/vsc11236/PredSimResults/SUBJ06mtu3D/worker7.mot
version=1
nRows=11
nColumns=50
inDegrees=yes
endheader
                time	         pelvis_tilt	         pelvis_list	     pelvis_rotation	           pelvis_tx	           pelvis_ty	           pelvis_tz	       hip_flexion_r	     hip_adduction_r	      hip_rotation_r	        knee_angle_r	       ankle_angle_r	         mtp_angle_r	       hip_flexion_l	     hip_adduction_l	      hip_rotation_l	        knee_angle_l	       ankle_angle_l	         mtp_angle_l	    lumbar_extension	      lumbar_bending	     lumbar_rotation	 ercspn_r/activation	 intobl_r/activation	 extobl_r/activation	    abd_r/activation	    add_r/activation	hamstrings_r/activation	bifemsh_r/activation	glut_max_r/activation	iliopsoas_r/activation	rect_fem_r/activation	  vasti_r/activation	gastroc_r/activation	 soleus_r/activation	tib_ant_r/activation	 ercspn_l/activation	 intobl_l/activation	 extobl_l/activation	    abd_l/activation	    add_l/activation	hamstrings_l/activation	bifemsh_l/activation	glut_max_l/activation	iliopsoas_l/activation	rect_fem_l/activation	  vasti_l/activation	gastroc_l/activation	 soleus_l/activation	tib_ant_l/activation	
          0.62440524	         -7.09778841	          1.85841253	         -7.44608894	          0.69933387	          0.92952885	          0.01506853	        -10.23180611	         -1.47557293	          4.57344336	         -8.02676682	          9.69434999	         29.57177071	         30.79891753	         -1.22703724	         -5.52929140	         -3.15414532	          3.42888877	          0.22906764	         -4.47926415	          0.17445929	         -1.33714703	          0.09614203	          0.01000006	          0.01000011	          0.05687718	          0.03836443	          0.01277762	          0.13748286	          0.04682006	          0.42097730	          0.01208355	          0.01000013	          0.38341524	          0.30741559	          0.01763388	          0.12238907	          0.16604920	          0.01000011	          0.01000002	          0.14403878	          0.13819644	          0.25354271	          0.03715893	          0.15478690	          0.01000038	          0.01000003	          0.04626929	          0.01000011	          0.42591987	
          0.63689335	         -7.15920130	          1.78426317	         -7.43702850	          0.71636147	          0.92755803	          0.01434822	        -10.69404936	         -1.48745273	          4.10550453	         -8.97132279	          8.91969186	         31.46796623	         30.94752776	         -1.06035684	         -4.84448083	         -5.06705622	          3.04637322	          0.19516346	         -4.15611530	         -0.08695219	         -0.98072064	          0.09641951	          0.01000009	          0.01000029	          0.04707850	          0.06421123	          0.02357591	          0.11379765	          0.03875402	          0.42173606	          0.01000194	          0.02146622	          0.35595661	          0.28788496	          0.01459595	          0.10130417	          0.18294945	          0.01000015	          0.01000011	          0.11922416	          0.12697085	          0.20986320	          0.07689554	          0.12812054	          0.01000031	          0.01000008	          0.03829814	          0.01756464	          0.45136937	
          0.64938145	         -7.20928870	          1.72044786	         -7.37425270	          0.73364602	          0.92592137	          0.01354030	        -10.99070144	         -1.49788899	          3.59627206	        -10.23870390	          7.98554358	         33.42734560	         30.91910106	         -0.90455373	         -4.21248988	         -6.76726299	          2.65624119	          0.18835303	         -3.82368525	         -0.37432214	         -0.62976728	          0.09567035	          0.01000003	          0.01000011	          0.03896791	          0.05314912	          0.01953296	          0.09419287	          0.03207757	          0.43422010	          0.01001263	          0.02573802	          0.32507908	          0.25470881	          0.01208139	          0.10507645	          0.15143142	          0.01000010	          0.06716000	          0.11508082	          0.11801204	          0.17370932	          0.10430207	          0.10604820	          0.01000007	          0.01000002	          0.03170023	          0.01453865	          0.51071854	
          0.66186956	         -7.24914726	          1.64464942	         -7.25836415	          0.75094646	          0.92479370	          0.01263208	        -11.04158702	         -1.48212994	          3.05437606	        -11.93799598	          6.86024291	         35.41638223	         30.79161745	         -0.73998983	         -3.68897304	         -8.27657560	          2.14034158	          0.15813499	         -3.51295827	         -0.66172673	         -0.29013886	          0.13077948	          0.01000005	          0.01000010	          0.03225460	          0.07339813	          0.02720964	          0.07796556	          0.02655132	          0.43693948	          0.01459508	          0.02130398	          0.27209564	          0.21082813	          0.01000004	          0.11452799	          0.12534315	          0.01000009	          0.11874795	          0.16458774	          0.10418728	          0.14378317	          0.14870471	          0.08777843	          0.01000010	          0.01000004	          0.02623899	          0.01203398	          0.53932422	
          0.67435766	         -7.27631778	          1.56516887	         -7.09649954	          0.76811628	          0.92426985	          0.01164301	        -10.76594336	         -1.44959082	          2.47658537	        -14.19671441	          5.55763916	         37.32880274	         30.61302986	         -0.56271622	         -3.25358296	         -9.75694013	          1.89641428	          0.12569269	         -3.23495280	         -0.95772288	          0.03542450	          0.16517690	          0.01000005	          0.01000010	          0.02669785	          0.10093034	          0.02358672	          0.06453388	          0.02197711	          0.42339487	          0.01208113	          0.01763378	          0.22521957	          0.17450709	          0.01000001	          0.12037448	          0.10374930	          0.01000007	          0.16558060	          0.19552684	          0.09371370	          0.11901259	          0.19266426	          0.07265615	          0.01000014	          0.01000026	          0.02171861	          0.01207786	          0.54361168	
          0.68684577	         -7.29003083	          1.48412710	         -6.89158776	          0.78501627	          0.92441554	          0.01059801	        -10.10745734	         -1.40691133	          1.84925370	        -17.08732705	          4.07601967	         38.97982706	         30.39887010	         -0.37984870	         -2.89782555	        -11.21353883	          1.89888985	          0.10344231	         -2.99807444	         -1.26390836	          0.34251118	          0.18856027	          0.01000006	          0.01000011	          0.02209840	          0.13131114	          0.02526674	          0.05341627	          0.01819095	          0.38760866	          0.01000034	          0.01459588	          0.18641920	          0.14444337	          0.01000003	          0.11860310	          0.08587560	          0.01000007	          0.19021594	          0.20281841	          0.08587436	          0.09850944	          0.20192387	          0.06013910	          0.01000014	          0.05026902	          0.01797699	          0.01000088	          0.53769831	
          0.69933387	         -7.29141528	          1.39810635	         -6.64760579	          0.80157516	          0.92525162	          0.00952408	         -9.06292199	         -1.36370117	          1.16046409	        -20.58740785	          2.45735321	         40.00228090	         30.09357770	         -0.19459929	         -2.59235036	        -12.50890098	          2.02656813	          0.08709045	         -2.80412060	         -1.57498125	          0.62864766	          0.18181602	          0.01000009	          0.01000012	          0.01829133	          0.13764736	          0.02118760	          0.04421424	          0.01505705	          0.33571787	          0.01000019	          0.01208134	          0.15430328	          0.11955896	          0.01000003	          0.11428963	          0.07108114	          0.01000008	          0.19031443	          0.17050935	          0.08106840	          0.08153855	          0.18738232	          0.04977846	          0.01000010	          0.09394807	          0.01487997	          0.01000028	          0.52194108	
          0.71182198	         -7.28253300	          1.30149865	         -6.37005182	          0.81777323	          0.92672677	          0.00845104	         -7.66897744	         -1.33394008	          0.41449315	        -24.61117739	          0.74619620	         40.05342606	         29.65266187	         -0.01273176	         -2.30394887	        -13.55988406	          2.28029648	          0.07599784	         -2.65227529	         -1.88426908	          0.89173609	          0.18563662	          0.01000008	          0.01000012	          0.01514014	          0.12790747	          0.01754213	          0.05357127	          0.01246305	          0.27788129	          0.01000015	          0.01000001	          0.12772022	          0.09896159	          0.01000008	          0.09706710	          0.05883544	          0.01000008	          0.18070605	          0.14113438	          0.07672649	          0.06749139	          0.16574817	          0.04120274	          0.01000010	          0.12746167	          0.01231650	          0.01000016	          0.49766170	
          0.72431008	         -7.26531824	          1.19120791	         -6.06164490	          0.83361828	          0.92875006	          0.00738706	         -5.98871713	         -1.33126309	         -0.36697233	        -28.99497505	         -1.12198147	         39.05829610	         29.05409888	          0.16166006	         -2.01391799	        -14.32795455	          2.67323088	          0.07677583	         -2.53990597	         -2.18434802	          1.12996933	          0.19179580	          0.01000006	          0.01000013	          0.01253183	          0.13322889	          0.01452243	          0.07364028	          0.01031595	          0.23000850	          0.01000015	          0.01000000	          0.10571684	          0.08191269	          0.04700074	          0.08034464	          0.04869941	          0.01000008	          0.17691376	          0.11682005	          0.07320887	          0.05586424	          0.15219907	          0.03410442	          0.01000011	          0.15271946	          0.01019467	          0.01000015	          0.46355330	
          0.73679819	         -7.24170745	          1.05976486	         -5.72354839	          0.84910969	          0.93120289	          0.00634152	         -4.10272163	         -1.35527328	         -1.17169660	        -33.57529522	         -2.98040940	         36.71832641	         28.29047796	          0.31906089	         -1.70186770	        -14.79213420	          3.16948046	          0.10944669	         -2.46548113	         -2.46253408	          1.34208367	          0.20089802	          0.01000011	          0.01000036	          0.01037287	          0.11816996	          0.01202493	          0.06578394	          0.01000000	          0.19038314	          0.01000017	          0.01000000	          0.08750417	          0.06780094	          0.13709633	          0.06650305	          0.04030959	          0.01000008	          0.18756721	          0.09669453	          0.06979651	          0.04624018	          0.13639182	          0.02822898	          0.01000010	          0.15491750	          0.01000011	          0.01000015	          0.42551205	
          0.74928629	         -7.21292035	          0.90692385	         -5.36052219	          0.86424288	          0.93393851	          0.00532409	         -2.11695900	         -1.40583179	         -1.98852796	        -38.16144669	         -4.52647305	         32.91222600	         27.39081137	          0.45607369	         -1.34453851	        -14.99062179	          3.69667590	          0.18458006	         -2.42706630	         -2.71367884	          1.53172974	          0.21323983	          0.01000038	          0.03667288	          0.01000000	          0.09781191	          0.01006714	          0.08926670	          0.01000001	          0.15758443	          0.01000016	          0.01000000	          0.07242914	          0.05612034	          0.24647119	          0.05504605	          0.03336514	          0.01000008	          0.18763981	          0.08003620	          0.06677710	          0.03827411	          0.11666976	          0.02336576	          0.01000010	          0.14919548	          0.01000011	          0.01000013	          0.39041823	
